<svg width="280.000000" height="154.000000" viewBox="0 0 280 154" fill="none" xmlns="http://www.w3.org/2000/svg" xmlns:xlink="http://www.w3.org/1999/xlink">
	<desc>
			Created with Pixso.
	</desc>
	<defs/>
	<path id="Combined Shape" d="M38.941 8.73779L28.6536 8.73779C27.2057 8.42383 26.1388 7.12744 25.834 5.87061L41.7225 5.87061C41.4558 7.12744 40.3889 8.46289 38.941 8.73779ZM94.951 8.73779L105.239 8.73779C106.686 8.46289 107.715 7.12744 108.02 5.87061L92.1696 5.87061C92.4744 7.12744 93.5413 8.42383 94.951 8.73779ZM4.75696 8.74609C3.35962 8.43066 2.30212 7.17041 2 5.91016L19.259 5.87061L19.259 5.91016C18.9569 7.17041 17.9373 8.35205 16.5022 8.74609L12.1968 8.74609L11.9702 8.82471L11.9702 20.1289L9.28882 20.1289L9.28882 8.82471L9.06226 8.74609L4.75696 8.74609ZM52.1244 8.69873L61.6499 8.69873C63.0978 8.2666 64.2789 7.12744 64.5837 5.90967L49.4954 5.90967L49.4954 14.3154L61.8403 14.3154L61.8403 17.2612L52.1625 17.2612C50.6384 17.6934 49.3429 18.7539 48.6952 20.1289L64.5076 20.1289L64.5076 11.5269L52.1625 11.5269L52.1244 8.69873ZM86.8353 17.3398C86.5305 18.5181 85.8065 19.5396 84.473 20.1289L72.1279 20.1289L72.1279 5.90967L74.8331 5.90967L74.8331 17.3398L86.8353 17.3398ZM28.6536 14.355L38.941 14.355C40.3889 14.0796 41.4558 12.7441 41.7225 11.4873L25.834 11.4873C26.1388 12.7441 27.2057 14.0405 28.6536 14.355ZM92.5887 20.1289L92.5887 11.5269L107.677 11.5269L107.677 20.1289L105.01 20.1289L105.01 14.394L95.2559 14.394L95.2559 20.1289L92.5887 20.1289ZM38.941 20.1289L28.6536 20.1289C27.2057 19.8535 26.1388 18.5181 25.834 17.2612L41.7225 17.2612C41.4558 18.5181 40.3889 19.8535 38.941 20.1289Z" clip-rule="evenodd" fill="#FFFFFF" fill-opacity="1.000000" fill-rule="evenodd"/>
	<path id="Combined Shape" d="M171.303 12.5806L158.975 12.5806L158.975 0L171.303 0L171.303 12.5806ZM172.125 12.5806L184.453 12.5806L184.453 0L172.125 0L172.125 12.5806ZM278.145 9.67871L278.145 11.793L275.562 11.793L275.562 16.9976C275.562 17.6641 275.679 18.1411 275.911 18.4136C276.141 18.6841 276.511 18.8208 277.011 18.8208C277.144 18.8208 277.315 18.7915 277.521 18.7324C277.725 18.6748 277.9 18.5972 278.04 18.5024L278.145 18.4316L278.145 20.5659L278.111 20.5864C277.957 20.6763 277.696 20.7598 277.312 20.8438C276.936 20.9258 276.567 20.9673 276.216 20.9673C274.082 20.9673 273 19.7861 273 17.4541L273 11.793L269.17 11.793L269.17 20.7017L266.588 20.7017L266.588 11.793L264.789 11.793L264.789 9.67871L266.588 9.67871L266.588 8.15283C266.588 7.38623 266.754 6.69385 267.083 6.09375C267.412 5.49365 267.882 5.02148 268.479 4.69043C269.076 4.36035 269.761 4.19336 270.514 4.19336C271.112 4.19336 271.595 4.25879 271.949 4.38818L271.994 4.40527L271.994 6.63184L271.899 6.58887C271.519 6.4165 271.141 6.3291 270.776 6.3291C270.269 6.3291 269.871 6.49463 269.593 6.8208C269.312 7.15039 269.17 7.64502 269.17 8.29102L269.17 9.67871L273 9.67871L273 7.1875L273.048 7.17285L275.475 6.41846L275.562 6.39111L275.562 9.67871L278.145 9.67871ZM211.723 5.41602C212.024 5.12793 212.39 4.98291 212.81 4.98291C213.252 4.98291 213.625 5.13232 213.919 5.42773C214.214 5.72314 214.363 6.08301 214.363 6.49707C214.363 6.91943 214.209 7.27637 213.907 7.55762C213.606 7.8374 213.237 7.97949 212.81 7.97949C212.383 7.97949 212.016 7.8374 211.719 7.55713C211.419 7.27637 211.268 6.91943 211.268 6.49707C211.268 6.06836 211.421 5.70459 211.723 5.41602ZM206.445 20.7012L206.445 8.86523L206.361 8.86523L201.741 20.7012L199.895 20.7012L195.202 8.86426L195.118 8.86426L195.118 20.7012L192.672 20.7012L192.672 5.32031L196.421 5.32031L200.866 16.7451L205.446 5.32031L209.049 5.32031L209.049 20.7012L206.445 20.7012ZM218.565 10.1709C219.453 9.66797 220.497 9.41309 221.667 9.41309C222.123 9.41309 222.603 9.46484 223.093 9.56836C223.585 9.67188 223.982 9.80859 224.273 9.97412L224.308 9.99414L224.308 12.4971L224.201 12.418C223.428 11.8481 222.611 11.5596 221.772 11.5596C220.792 11.5596 219.987 11.8975 219.38 12.5635C218.771 13.231 218.461 14.1362 218.461 15.2539C218.461 16.3643 218.758 17.2466 219.342 17.875C219.926 18.5029 220.729 18.8213 221.73 18.8213C222.091 18.8213 222.502 18.7402 222.953 18.5806C223.404 18.4204 223.825 18.1982 224.2 17.9199L224.308 17.8403L224.308 20.2158L224.274 20.2354C223.444 20.7212 222.409 20.9678 221.197 20.9678C220.158 20.9678 219.22 20.7358 218.408 20.2783C217.595 19.8208 216.953 19.1606 216.499 18.3169C216.046 17.4746 215.816 16.5186 215.816 15.4771C215.816 14.2881 216.053 13.2222 216.519 12.3091C216.987 11.3945 217.675 10.6748 218.565 10.1709ZM234.232 10.9961C235.244 9.94531 236.664 9.41309 238.453 9.41309C240.137 9.41309 241.473 9.92236 242.423 10.9272C243.373 11.9321 243.854 13.3306 243.854 15.0835C243.854 16.8584 243.341 18.2983 242.329 19.3623C241.317 20.4272 239.925 20.9673 238.191 20.9673C236.528 20.9673 235.183 20.4546 234.195 19.4429C233.207 18.4316 232.706 17.0439 232.706 15.3174C232.706 13.5005 233.22 12.0464 234.232 10.9961ZM246.236 10.3525C247.004 9.729 248.01 9.41309 249.227 9.41309C249.599 9.41309 250.027 9.45801 250.499 9.54688C250.973 9.63623 251.363 9.74658 251.659 9.87598L251.699 9.89355L251.699 12.2905L251.594 12.2173C251.273 11.9956 250.889 11.8145 250.452 11.6787C250.014 11.5435 249.573 11.4746 249.143 11.4746C248.68 11.4746 248.31 11.5806 248.044 11.7896C247.781 11.9976 247.652 12.2544 247.652 12.5752C247.652 12.9365 247.756 13.2222 247.961 13.4243C248.174 13.6333 248.689 13.9058 249.493 14.2334C250.502 14.647 251.225 15.1152 251.642 15.625C252.062 16.1387 252.275 16.7759 252.275 17.519C252.275 18.5488 251.879 19.3911 251.099 20.0225C250.323 20.6499 249.26 20.9678 247.94 20.9678C247.513 20.9678 247.02 20.9097 246.478 20.7959C245.935 20.6821 245.474 20.5376 245.109 20.3662L245.07 20.3477L245.07 17.8203L245.177 17.8984C245.619 18.2207 246.106 18.4722 246.623 18.6436C247.143 18.8179 247.618 18.9062 248.034 18.9062C249.157 18.9062 249.703 18.5459 249.703 17.8052C249.703 17.5454 249.649 17.3345 249.543 17.1802C249.434 17.0229 249.24 16.8613 248.968 16.7007C248.689 16.5366 248.251 16.3286 247.663 16.0825C246.963 15.7769 246.435 15.4766 246.093 15.1899C245.748 14.9009 245.489 14.5566 245.321 14.1655C245.155 13.7754 245.07 13.3159 245.07 12.7983C245.07 11.8027 245.462 10.98 246.236 10.3525ZM254.916 10.9961C255.928 9.94531 257.349 9.41309 259.137 9.41309C260.821 9.41309 262.158 9.92236 263.107 10.9272C264.057 11.9321 264.538 13.3306 264.538 15.0835C264.538 16.8584 264.025 18.2983 263.013 19.3623C262.001 20.4272 260.609 20.9673 258.875 20.9673C257.212 20.9673 255.867 20.4546 254.879 19.4429C253.891 18.4316 253.391 17.0435 253.391 15.3174C253.391 13.5005 253.904 12.0464 254.916 10.9961ZM228.786 9.67871L228.786 11.5874L228.813 11.5874C229.052 10.9678 229.363 10.4712 229.795 10.1089C230.286 9.69678 230.86 9.4873 231.501 9.4873C231.926 9.4873 232.262 9.53906 232.5 9.6416L232.541 9.65967L232.541 12.2739L232.434 12.1948C232.316 12.1084 232.115 12.0259 231.839 11.9502C231.56 11.874 231.302 11.8354 231.072 11.8354C230.394 11.8354 229.839 12.1333 229.422 12.7212C229 13.3164 228.786 14.104 228.786 15.063L228.786 20.7012L226.235 20.7012L226.235 9.67871L228.786 9.67871ZM211.509 9.67871L214.059 9.67871L214.059 20.7012L211.509 20.7012L211.509 9.67871ZM238.338 18.8213C237.401 18.8213 236.661 18.5054 236.141 17.8828C235.617 17.2573 235.352 16.3662 235.352 15.2329C235.352 14.064 235.617 13.1494 236.141 12.5127C236.662 11.8804 237.394 11.5596 238.317 11.5596C239.212 11.5596 239.925 11.8662 240.436 12.4712C240.949 13.0791 241.209 13.9868 241.209 15.1689C241.209 16.3662 240.964 17.2856 240.481 17.9009C240.002 18.5112 239.281 18.8213 238.338 18.8213ZM259.022 18.8213C258.085 18.8213 257.346 18.5054 256.825 17.8828C256.301 17.2573 256.036 16.3657 256.036 15.2329C256.036 14.064 256.301 13.1494 256.825 12.5127C257.346 11.8804 258.078 11.5596 259.001 11.5596C259.896 11.5596 260.609 11.8662 261.12 12.4712C261.633 13.0791 261.893 13.9868 261.893 15.1689C261.893 16.3662 261.649 17.2856 261.166 17.9009C260.686 18.5112 259.965 18.8213 259.022 18.8213ZM171.303 26L158.975 26L158.975 13.4194L171.303 13.4194L171.303 26ZM172.125 26L184.453 26L184.453 13.4194L172.125 13.4194L172.125 26Z" clip-rule="evenodd" fill="#FFFFFF" fill-opacity="1.000000" fill-rule="evenodd"/>
	<path id="Combined Shape" d="M32.3951 65L18.7614 65L18.1421 66.647C23.5481 66.9033 27.8451 70.9673 27.8451 75.9429C27.8451 80.5674 24.1323 84.4048 19.2677 85.1289L18.684 86.8965L32.3951 86.8965C33.1633 86.8994 33.9011 86.5933 34.4454 86.0454C34.9899 85.4976 35.296 84.7539 35.2963 83.9775L35.2963 67.9087C35.2963 66.2881 33.9968 65 32.3951 65ZM15.046 65L9.85217 79.6675L9.85217 79.668L12.0457 79.668L14.5851 72.6089L15.2775 72.6089C15.7384 72.6089 15.7384 72.9482 15.6619 73.3257L13.3918 79.668L15.6619 79.668C15.6619 79.668 17.624 74.3076 17.9705 73.1748C18.3164 72.0425 17.624 71.4761 16.2771 71.4761L14.9689 71.4761L17.2775 65L15.046 65ZM14.3379 84.915C10.321 83.6089 7.43347 80.0151 7.43347 75.9434C7.43347 72.3643 9.94128 68.752 13.2891 66.9561L13.9846 65.0005L2.89441 65.0005C1.29504 65.0029 0 66.3135 0 67.9292L0 83.9556C0 85.5723 1.29578 86.8965 2.89441 86.8965L13.6368 86.8965L14.3379 84.915ZM114.382 65.6406C114.026 65.272 113.535 65.0684 113.025 65.0762C112.497 65.0762 112.048 65.2651 111.675 65.6406C111.317 65.9922 111.115 66.4756 111.115 66.98C111.115 66.9888 111.115 66.998 111.115 67.0068C111.115 67.5449 111.3 68.0024 111.67 68.3809C112.042 68.7607 112.493 68.9497 113.025 68.9497C113.555 68.9497 114.008 68.7598 114.382 68.3809C114.741 68.0269 114.943 67.5415 114.943 67.0356C114.943 67.0264 114.943 67.0166 114.942 67.0068C114.942 66.4727 114.755 66.0166 114.382 65.6406ZM69.2556 72.4766C69.3724 72.9077 69.934 73.7896 70.5157 73.7896L70.5157 73.79L71.6782 73.79L74.4694 65.1274L72.4916 65.1274L70.6699 71.0464L68.7322 65.1665L66.8724 65.1665L64.9347 71.0464L63.1118 65.1274L61.1354 65.1274L63.4995 72.458C63.6156 72.8887 64.12 73.79 64.7019 73.79L65.903 73.79L67.8026 67.9492L69.2556 72.4766ZM107.469 73.7861L107.469 66.9312L110.355 66.9312L110.355 65.1289L102.646 65.1289L102.646 66.9312L105.494 66.9312L105.494 73.7861L107.469 73.7861ZM98.343 73.7808L98.343 66.9351L101.227 66.9351L101.227 65.1348L93.5256 65.1348L93.5256 66.9351L96.3702 66.9351L96.3702 73.7808L98.343 73.7808ZM60.0197 65.1357L53.4427 65.1357C52.5525 65.1357 52.0886 65.6445 52.0886 66.4272L52.0886 72.6465C52.0886 73.1548 52.5525 73.7808 53.3265 73.7808L60.0197 73.7808L60.0197 71.9819L54.0614 71.9819L54.0614 70.3394L59.0139 70.3394L59.0139 68.54L54.0614 68.54L54.0614 66.937L60.0197 66.937L60.0197 65.1357ZM92.08 65.1396L85.5073 65.1396C84.6171 65.1396 84.1538 65.6475 84.1538 66.4297L84.1538 72.6431C84.1538 73.1514 84.6171 73.7764 85.3912 73.7764L92.08 73.7764L92.08 71.9785L86.126 71.9785L86.126 70.3374L91.0748 70.3374L91.0748 68.5396L86.126 68.5396L86.126 66.937L92.08 66.937L92.08 65.1396ZM40.9806 65.1416L40.9806 73.7744L42.9515 73.7744L42.9515 70.3369L48.0914 70.3369L48.0914 73.7744L50.0624 73.7744L50.0624 65.1416L48.0914 65.1416L48.0914 68.54L42.9515 68.54L42.9515 65.1416L40.9806 65.1416ZM75.9003 65.1445L75.9003 72.4834C75.9003 73.147 76.4028 73.7715 77.2911 73.7715L83.0861 73.7715L83.0861 71.9756L77.8712 71.9756L77.8712 65.1445L75.9003 65.1445ZM113.025 68.6836C113.464 68.6909 113.887 68.5132 114.191 68.1934C114.512 67.8662 114.672 67.4707 114.672 67.0063C114.672 66.5459 114.512 66.1528 114.192 65.8276C113.87 65.501 113.481 65.3369 113.026 65.3369C112.57 65.3369 112.183 65.501 111.861 65.8276C111.541 66.1528 111.381 66.5459 111.381 67.0063C111.381 67.0166 111.381 67.0269 111.381 67.0371C111.381 67.4712 111.553 67.8872 111.859 68.1934C112.163 68.5137 112.586 68.6914 113.025 68.6836ZM23.6719 71.4385L20.0813 71.4385L14.9077 86.1855L17.1085 86.1855L19.4023 79.666L21.4324 79.666C23.0541 79.666 23.3247 79.0591 23.6333 78.187L25.2936 73.562C25.8727 72.0073 24.7523 71.4385 23.6719 71.4385ZM21.3938 77.8838C21.4324 77.6562 23.0541 73.145 23.0541 73.145C23.1698 72.8418 23.2084 72.5762 22.8613 72.5762L21.8959 72.5762L19.8021 78.5283L20.7761 78.5283C21.1619 78.5283 21.3553 78.1113 21.3938 77.8838ZM55.9635 78.3408L53.4065 78.3408L49.4154 87L51.5073 87L52.2053 85.4331L57.156 85.4331L57.8619 87L59.8771 87L55.9635 78.3408ZM98.9531 83.6304C99.4188 83.2383 99.7284 82.6509 99.7284 81.0835C99.7284 79.3203 98.5273 78.3408 97.1327 78.3408L91.4368 78.3408L91.4368 86.9995L93.3745 86.9995L93.3745 84.4521L96.7057 84.4521C97.4811 84.4521 97.8687 85.0791 97.8687 85.4321L97.8687 86.9985L99.7284 86.9985L99.7284 85.1968C99.7284 84.6875 99.573 83.9438 98.9531 83.6304ZM71.1086 78.3491L71.1086 86.9917L73.0826 86.9917L73.0826 83.3936L74.0884 83.3936L77.7625 86.9917L79.2327 86.9917L79.2327 85.8579L75.7897 82.416L79.9299 78.3491L77.2992 78.3491L73.9336 81.5952L73.0826 81.5952L73.0826 78.3491L71.1086 78.3491ZM47.203 78.354L40.9806 78.354L40.9806 86.9868L42.9515 86.9868L42.9515 84.5649L47.2024 84.5649C48.3617 84.5649 49.6759 83.9014 49.6759 81.479L49.6759 81.4775C49.6759 79.0181 48.246 78.354 47.203 78.354ZM110.403 81.0107C110.403 79.4883 109.63 78.356 108.008 78.356L101.673 78.356L101.673 86.9844L107.969 86.9844C110.249 86.9844 110.403 84.7588 110.403 83.5483L110.403 81.0107ZM86.0529 78.3579L83.5044 78.3579L80.0676 85.7729L80.0676 86.9824L81.6122 86.9824L82.307 85.4214L87.2423 85.4214L87.9458 86.9824L89.9548 86.9824L86.0529 78.3579ZM60.7422 80.3896L60.7422 84.9507C60.7422 85.8472 61.2822 86.9785 62.7488 86.9785L67.4562 86.9785C68.5363 86.9785 69.4227 86.2378 69.4227 84.9507L69.4227 84.1714L67.4943 84.1714C67.4943 84.561 67.4163 85.1851 66.6832 85.1851L63.3269 85.1851C63.0952 85.1851 62.7101 85.0293 62.7101 84.4053L62.7101 80.9746C62.7101 80.9746 62.7039 80.9331 62.7039 80.8687C62.7039 80.6558 62.7725 80.1953 63.365 80.1953L66.7606 80.1953C67.0691 80.1953 67.4156 80.7793 67.4556 81.1689L69.4221 81.1689L69.4221 80.4292C69.4221 79.6885 68.6904 78.4014 67.4556 78.3628L62.7095 78.3628C61.7836 78.3628 60.7422 79.4155 60.7422 80.3896ZM54.6843 79.9468L53.0188 83.6304L56.3119 83.6304L54.6843 79.9468ZM84.7787 79.958L83.118 83.627L86.432 83.627L84.7787 79.958ZM93.3739 82.6509L96.9379 82.6509C97.6746 82.6509 97.868 81.7495 97.868 81.3193C97.868 80.8872 97.6746 80.1436 96.7051 80.1436L93.3739 80.1436L93.3739 82.6509ZM42.9515 82.7681L46.7391 82.7681C47.5895 82.7681 47.5895 81.8701 47.5895 81.4795C47.5895 81.0889 47.5895 80.1509 46.623 80.1509L42.9515 80.1509L42.9515 82.7681ZM108.432 83.7832L108.432 81.3232C108.434 81.2974 108.435 81.271 108.435 81.2451C108.435 80.7197 108.058 80.1523 107.506 80.1523L103.642 80.1523L103.642 85.1885L107.351 85.1885C108.046 85.1885 108.432 84.5244 108.432 83.7832Z" clip-rule="evenodd" fill="#FFFFFF" fill-opacity="1.000000" fill-rule="evenodd"/>
	<path id="Shape" d="M225.131 77.271L218.025 77.271L219.594 79.6909L226.79 79.6909L228.271 82.1108L231.409 82.1108L222.987 69.0806C222.634 68.5659 222.026 68.2593 221.374 68.2593C220.699 68.2593 220.091 68.5767 219.727 69.1025L211.338 82.1108L214.476 82.1108L221.374 71.2812L225.131 77.271ZM211.249 73.0332C211.249 75.5957 209.149 77.665 206.563 77.665L206.563 77.6655L205.347 77.6655L210.697 82.1113L206.828 82.1113L198.877 75.2456L206.386 75.2563C207.624 75.2563 208.619 74.2598 208.619 73.0337C208.619 71.8071 207.624 70.8105 206.386 70.8105L197.573 70.8105L197.573 82.1113L194.91 82.1113L194.91 68.3906L206.563 68.3906C209.149 68.3906 211.249 70.4707 211.249 73.0332ZM269.542 79.6909L279.146 79.6909L277.577 82.1108L269.365 82.1108C265.54 82.1108 262.435 79.0449 262.435 75.2559C262.435 71.4673 265.54 68.3906 269.365 68.3906L278.936 68.3906L277.356 70.8105L269.542 70.8105C267.497 70.8105 265.762 72.1792 265.231 74.041L278.185 74.041L276.615 76.4609L265.231 76.4609C265.762 78.333 267.497 79.6909 269.542 79.6909ZM250.63 79.6909L250.63 68.3906L247.967 68.3906L247.967 80.7969C247.967 81.1362 248.099 81.4648 248.353 81.7168C248.607 81.9688 248.95 82.1108 249.326 82.1108L261.473 82.1108L263.042 79.6909L250.63 79.6909L250.63 79.6909ZM178.519 82.1108C174.696 82.1113 171.593 79.0449 171.593 75.2563C171.593 71.4673 174.696 68.3906 178.519 68.3906L186.568 68.3906C190.392 68.3906 193.493 71.4673 193.493 75.2563C193.493 79.0449 190.392 82.1108 186.568 82.1108L178.519 82.1108ZM236.969 82.1108C233.145 82.1108 230.039 79.0449 230.039 75.2563C230.039 71.4673 233.145 68.3906 236.969 68.3906L246.53 68.3906L244.971 70.8105L237.146 70.8105C234.67 70.8105 232.658 72.8037 232.658 75.2563C232.658 77.709 234.67 79.6909 237.146 79.6909L246.751 79.6909L245.181 82.1108L236.969 82.1108ZM190.872 75.2563C190.872 77.709 188.866 79.6909 186.39 79.6909L178.697 79.6909C176.221 79.6909 174.214 77.709 174.214 75.2563C174.214 72.8037 176.221 70.8105 178.697 70.8105L186.39 70.8105C188.866 70.8105 190.872 72.8037 190.872 75.2563Z" clip-rule="evenodd" fill="#FFFFFF" fill-opacity="1.000000" fill-rule="evenodd"/>
	<path id="Combined Shape" d="M20.4196 140.156L23.8734 140.156L23.8734 144.929C22.7958 145.27 21.4351 145.457 20.0205 145.457C14.288 145.457 10.9188 140.626 10.9188 135.909C10.9188 131.283 13.9663 128.037 18.218 128.037C20.9084 128.037 22.4739 128.934 23.8744 130.183L23.8744 131.741L26.5005 129.157C24.8395 128.051 22.4343 127 18.9965 127C11.4496 127 8 132.312 8 136.678C8 142.893 12.6002 146.636 18.3811 146.636C21.1841 146.636 23.673 146.215 26.5479 145.428L26.5479 140.497C26.5479 140.245 26.6604 140.072 26.8287 139.919L27.736 139.027L21.5756 139.027L20.4196 140.156ZM74.6335 145.818L69.3978 145.818L70.3573 144.874C70.5146 144.713 70.5879 144.557 70.5879 144.327L70.5879 128.147L68.8524 128.147L70.0144 127L74.4794 127L73.5349 127.933C73.4294 128.033 73.2849 128.19 73.2849 128.498L73.2849 144.117C73.2849 144.451 73.5253 144.796 73.9294 144.845L75.431 145.03L74.6335 145.818ZM57.8829 138.559C57.8829 135.914 59.8331 133.545 63.4381 133.545L63.4381 133.545L68.7811 133.545L67.697 134.67L66.2542 134.67C67.436 135.713 67.9547 136.827 67.9547 138.122C67.9547 140.008 66.9287 140.954 66.2023 141.592C66.0698 141.715 65.7152 141.971 65.5104 142.195C65.3942 142.333 65.0774 142.697 65.0774 143.247C65.0774 143.63 65.2007 143.957 65.8364 144.47C67.9985 146.151 68.8524 147.126 68.8524 148.905C68.8524 151.429 66.5415 154 62.0797 154C58.3108 154 56.5175 152.086 56.5175 150.143C56.5175 147.923 58.5002 145.857 63.4338 145.545C62.9122 144.932 62.6667 144.533 62.6667 143.824C62.6677 143.342 62.8652 142.844 62.8652 142.844L62.1399 142.844C59.2727 142.844 57.8829 140.573 57.8829 138.559ZM81.5333 133.545C78.5743 133.545 75.431 135.653 75.431 139.438C75.431 142.563 77.6863 145.818 81.8999 145.818C82.9506 145.818 83.8158 145.691 84.6265 145.344C85.496 144.97 86.3328 144.362 86.9437 143.598C85.7905 144.142 84.8501 144.499 83.6007 144.499C81.2266 144.499 78.9376 142.897 78.1367 139.954L86.5237 136.786C86.0392 135.171 84.6732 133.545 81.5344 133.545L81.5333 133.545ZM28.5582 139.769C28.5582 136.564 31.2048 133.545 35.4763 133.545L35.4763 133.546C39.2239 133.546 41.7155 136.496 41.7155 139.533C41.7155 142.793 39.1659 145.818 35.0103 145.818C30.6904 145.818 28.5582 142.534 28.5582 139.769ZM43.3602 139.769C43.3602 136.564 46.0068 133.545 50.2783 133.545L50.2783 133.546C54.0259 133.546 56.5175 136.496 56.5175 139.533C56.5175 142.793 53.9679 145.818 49.8123 145.818C45.4924 145.818 43.3602 142.534 43.3602 139.769ZM62.4436 134.387C63.0978 134.387 63.6438 134.627 64.2206 135.125C64.8604 135.724 65.8824 137.333 65.8824 139.323C65.8824 141.471 64.2747 142.059 63.4045 142.059C62.9786 142.059 62.4683 141.935 62.0361 141.628C61.0763 140.982 60.1235 139.262 60.1235 137.216C60.1235 135.37 61.1831 134.387 62.4436 134.387ZM83.7207 136.587C83.7207 135.632 82.5731 134.411 80.9855 134.411C79.936 134.411 77.8085 135.146 77.8085 137.897C77.8085 138.553 77.948 139.16 77.948 139.16L83.1031 137.21C83.5135 137.06 83.7207 136.896 83.7207 136.587ZM34.7677 134.425C37.7793 134.425 39.1204 138.22 39.1204 140.927C39.1204 144.952 35.9982 145.032 35.625 145.032C34.1962 145.032 33.1976 144.197 32.4501 143.101C31.7921 142.092 31.1489 140.216 31.1489 138.383C31.1489 136.558 31.7667 135.667 32.739 135.011C33.5341 134.519 34.2786 134.425 34.7666 134.425L34.7677 134.425ZM49.5697 134.425C52.5813 134.425 53.9224 138.22 53.9224 140.927C53.9224 144.952 50.8002 145.032 50.427 145.032C48.9982 145.032 47.9996 144.197 47.2522 143.101C46.5941 142.092 45.9509 140.216 45.9509 138.383C45.9509 136.558 46.5687 135.667 47.541 135.011C48.3361 134.519 49.0806 134.425 49.5686 134.425L49.5697 134.425ZM64.3439 146.384C64.3439 146.384 64.1461 146.361 63.8711 146.361C60.1693 146.415 58.8203 147.864 58.8203 149.547C58.8203 151.58 60.7889 152.825 63.3646 152.825C65.7112 152.825 67.1602 151.554 67.1602 149.932C67.1602 148.753 66.502 148.091 65.4464 147.225C64.9929 146.865 64.3439 146.384 64.3439 146.384Z" clip-rule="evenodd" fill="#FFFFFF" fill-opacity="1.000000" fill-rule="evenodd"/>
	<path id="Combined Shape" d="M170.444 130.272L170.444 133.137L171.01 133.102C178.293 132.853 183.05 139.092 183.05 139.092C183.05 139.092 177.597 145.745 171.919 145.745C171.423 145.745 170.939 145.697 170.455 145.614L170.455 147.39C170.857 147.438 171.27 147.473 171.671 147.473C176.959 147.473 180.784 144.762 184.49 141.566C185.104 142.063 187.618 143.259 188.137 143.779C184.62 146.739 176.416 149.119 171.766 149.119C171.317 149.119 170.892 149.095 170.467 149.047L170.467 151.545L190.557 151.545L190.557 130.272L170.444 130.272ZM161.768 139.435C161.768 139.435 164.656 135.155 170.444 134.701L170.444 136.618C166.548 137.044 164.199 139.648 164.199 139.648C164.199 139.648 165.557 144.75 170.444 145.626L170.444 144.111C167.693 143.176 166.784 139.944 166.784 139.944C166.784 139.944 168.39 138.026 170.432 138.275L170.444 138.275L170.444 136.618C170.798 136.582 171.152 136.559 171.506 136.57C174.858 136.57 176.853 139.187 176.853 139.187L174.126 141.483C172.911 139.435 172.497 138.535 170.455 138.287L170.455 144.111C170.951 144.277 171.47 144.359 172.002 144.359C175.979 144.359 179.686 139.198 179.686 139.198C179.686 139.198 176.251 134.51 171.01 134.676C170.825 134.676 170.64 134.688 170.455 134.699L170.455 133.137C164.034 133.658 158.486 139.104 158.486 139.104C158.486 139.104 161.626 148.219 170.444 149.047L170.444 147.39C163.975 146.585 161.768 139.435 161.768 139.435ZM170.455 134.699L170.455 134.7C170.451 134.7 170.448 134.701 170.444 134.701L170.444 134.7L170.455 134.699ZM196.313 148.261L196.313 134.364L203.414 134.364C206.858 134.364 210.385 135.105 210.385 140.589L210.385 148.261L206.514 148.261L206.514 141.918C206.514 139.977 206.264 138.906 205.635 138.247C205.148 137.729 204.436 137.482 203.414 137.482L200.303 137.471L200.303 148.261L196.313 148.261ZM218.423 145.39L221.725 134.388L225.762 134.388L221.202 148.273L215.502 148.273L210.99 134.388L215.265 134.388L218.423 145.39ZM227.424 134.388L231.378 134.388L231.378 148.273L227.424 148.273L227.424 134.388ZM233.801 148.273L233.801 134.388L239.346 134.388C242.505 134.388 244.618 134.764 246.067 136.706C246.886 137.788 247.349 139.53 247.349 141.483C247.349 143.613 246.803 145.566 245.948 146.449C244.749 147.708 243.633 148.273 240.213 148.273L233.801 148.273ZM249.202 148.273L249.202 134.388L253.156 134.388L253.156 148.273L249.202 148.273ZM254.771 148.261L260.292 134.388L265.577 134.388L271.146 148.25L266.906 148.25L266.075 145.802L259.544 145.802L258.666 148.261L254.771 148.261ZM262.857 136.917L265.256 143.413L260.387 143.413L262.857 136.917ZM237.719 137.4L239.417 137.4C241.887 137.4 243.478 138.494 243.478 141.342C243.478 144.19 241.887 145.296 239.417 145.296L237.719 145.296L237.719 137.4Z" clip-rule="evenodd" fill="#FFFFFF" fill-opacity="1.000000" fill-rule="evenodd"/>
</svg>
