<svg width="542.000000" height="104.000000" viewBox="0 0 542 104" fill="none" xmlns="http://www.w3.org/2000/svg" xmlns:xlink="http://www.w3.org/1999/xlink">
	<desc>
			Created with Pixso.
	</desc>
	<defs/>
	<path id="Combined Shape" d="M3.38574 10.4282C1.66992 10.0525 0.371094 8.54974 0 7.04694L21.1963 7L21.1963 7.04694C20.8252 8.54974 19.5723 9.95856 17.8105 10.4282L12.5225 10.4282L12.2441 10.5221L12.2441 24L8.95117 24L8.95117 10.5221L8.67285 10.4282L3.38574 10.4282ZM45.3682 10.4188L32.7334 10.4188C30.9551 10.0441 29.6455 8.4986 29.2705 7L48.7832 7C48.4561 8.4986 47.1455 10.0909 45.3682 10.4188ZM114.153 10.4188L126.788 10.4188C128.566 10.0909 129.829 8.4986 130.204 7L110.737 7C111.112 8.4986 112.422 10.0441 114.153 10.4188ZM61.5586 10.3719L73.2568 10.3719C75.0342 9.85675 76.4854 8.4986 76.8594 7.04681L58.3291 7.04681L58.3291 17.0688L73.4902 17.0688L73.4902 20.5812L61.6045 20.5812C59.7334 21.0964 58.1426 22.3609 57.3467 24L76.7656 24L76.7656 13.7438L61.6045 13.7438L61.5586 10.3719ZM104.187 20.6749C103.812 22.0799 102.923 23.2975 101.285 24L86.125 24L86.125 7.04681L89.4473 7.04681L89.4473 20.6749L104.187 20.6749ZM32.7334 17.1157L45.3682 17.1157C47.1455 16.7879 48.4561 15.1956 48.7832 13.697L29.2705 13.697C29.6455 15.1956 30.9551 16.741 32.7334 17.1157ZM111.253 24L111.253 13.7438L129.782 13.7438L129.782 24L126.507 24L126.507 17.1625L114.528 17.1625L114.528 24L111.253 24ZM45.3682 24L32.7334 24C30.9551 23.6722 29.6455 22.0799 29.2705 20.5812L48.7832 20.5812C48.4561 22.0799 47.1455 23.6722 45.3682 24Z" clip-rule="evenodd" fill="#36536B" fill-opacity="1.000000" fill-rule="evenodd"/>
	<path id="Combined Shape" d="M207.921 15L192.781 15L192.781 0L207.921 0L207.921 15ZM208.931 15L224.07 15L224.07 0L208.931 0L208.931 15ZM339.135 11.5398L339.135 14.0611L335.962 14.0611L335.962 20.2661C335.962 21.0613 336.106 21.6298 336.392 21.9549C336.673 22.277 337.127 22.4403 337.741 22.4403C337.904 22.4403 338.115 22.4052 338.368 22.3351C338.619 22.2664 338.833 22.1739 339.006 22.0607L339.135 21.9766L339.135 24.5211L339.093 24.5455C338.904 24.6523 338.583 24.7523 338.112 24.8524C337.649 24.95 337.196 24.9997 336.766 24.9997C334.145 24.9997 332.816 23.5909 332.816 20.811L332.816 14.0611L328.112 14.0611L328.112 24.6828L324.941 24.6828L324.941 14.0611L322.731 14.0611L322.731 11.5398L324.941 11.5398L324.941 9.72083C324.941 8.80688 325.146 7.98102 325.549 7.26599C325.953 6.55005 326.53 5.987 327.264 5.59259C327.997 5.19873 328.838 5 329.764 5C330.497 5 331.09 5.07782 331.525 5.2323L331.58 5.25226L331.58 7.90753L331.464 7.85596C330.996 7.65051 330.532 7.54639 330.085 7.54639C329.461 7.54639 328.973 7.7439 328.631 8.13232C328.287 8.52551 328.112 9.11505 328.112 9.88544L328.112 11.54L332.816 11.54L332.816 8.57001L332.875 8.55243L335.854 7.65265L335.962 7.62018L335.962 11.5398L339.135 11.5398ZM257.562 6.45758C257.932 6.11432 258.381 5.9411 258.896 5.9411C259.438 5.9411 259.897 6.11945 260.259 6.47144C260.62 6.8241 260.804 7.25305 260.804 7.74664C260.804 8.25024 260.615 8.67554 260.243 9.01117C259.874 9.34473 259.421 9.51404 258.896 9.51404C258.372 9.51404 257.921 9.34473 257.556 9.01062C257.188 8.67554 257.003 8.25006 257.003 7.74664C257.003 7.23517 257.19 6.80182 257.562 6.45758ZM251.08 24.6826L251.08 10.5703L250.977 10.5703L245.303 24.6826L243.036 24.6826L237.271 10.5689L237.169 10.5689L237.169 24.6824L234.164 24.6824L234.164 6.34344L238.77 6.34344L244.228 19.9652L249.853 6.34344L254.277 6.34344L254.277 24.6826L251.08 24.6826ZM265.964 12.1269C267.055 11.5273 268.337 11.2232 269.773 11.2232C270.333 11.2232 270.923 11.2853 271.525 11.4086C272.13 11.5322 272.617 11.6951 272.975 11.8925L273.017 11.9161L273.017 14.9005L272.886 14.8063C271.936 14.1267 270.933 13.7827 269.903 13.7827C268.699 13.7827 267.71 14.1854 266.965 14.9793C266.217 15.7756 265.837 16.8549 265.837 18.1873C265.837 19.5113 266.201 20.5635 266.919 21.3128C267.635 22.0612 268.622 22.4407 269.852 22.4407C270.294 22.4407 270.799 22.3443 271.353 22.1536C271.907 21.9628 272.424 21.6979 272.885 21.366L273.017 21.2712L273.017 24.1035L272.976 24.1268C271.956 24.7061 270.686 24.9999 269.196 24.9999C267.921 24.9999 266.769 24.7234 265.771 24.1783C264.773 23.6324 263.984 22.8454 263.427 21.8394C262.87 20.835 262.589 19.6954 262.589 18.4537C262.589 17.036 262.879 15.7648 263.451 14.6766C264.026 13.5857 264.871 12.7278 265.964 12.1269ZM285.204 13.1107C286.447 11.8582 288.191 11.2232 290.389 11.2232C292.457 11.2232 294.098 11.8306 295.265 13.029C296.431 14.2268 297.021 15.8943 297.021 17.9844C297.021 20.1003 296.392 21.8173 295.149 23.0858C293.906 24.3555 292.195 24.9995 290.067 24.9995C288.024 24.9995 286.373 24.3884 285.16 23.1821C283.946 21.9763 283.331 20.3219 283.331 18.2632C283.331 16.0967 283.962 14.3633 285.204 13.1107ZM299.946 12.3438C300.891 11.6003 302.126 11.2232 303.62 11.2232C304.077 11.2232 304.603 11.2767 305.183 11.3828C305.765 11.4896 306.243 11.6212 306.606 11.775L306.656 11.7961L306.656 14.6544L306.527 14.567C306.133 14.3026 305.661 14.0864 305.124 13.9249C304.586 13.7635 304.046 13.6811 303.518 13.6811C302.948 13.6811 302.494 13.8079 302.168 14.0571C301.844 14.3051 301.687 14.6113 301.687 14.9935C301.687 15.4247 301.814 15.7651 302.065 16.0059C302.326 16.2551 302.959 16.5798 303.946 16.9708C305.186 17.464 306.074 18.0219 306.586 18.6296C307.102 19.2424 307.363 20.0021 307.363 20.888C307.363 22.116 306.878 23.1201 305.919 23.8732C304.967 24.6211 303.661 25 302.04 25C301.515 25 300.91 24.9309 300.244 24.7952C299.577 24.6595 299.012 24.4871 298.562 24.2827L298.515 24.2606L298.515 21.2473L298.646 21.3405C299.188 21.7247 299.787 22.0244 300.422 22.2289C301.061 22.4367 301.645 22.5421 302.155 22.5421C303.534 22.5421 304.204 22.1124 304.204 21.2294C304.204 20.9193 304.139 20.668 304.008 20.4844C303.874 20.2968 303.637 20.1041 303.302 19.9125C302.96 19.7169 302.421 19.4688 301.699 19.1755C300.84 18.8112 300.191 18.4531 299.771 18.1113C299.348 17.7666 299.029 17.356 298.823 16.8896C298.619 16.4247 298.515 15.8766 298.515 15.2596C298.515 14.0726 298.997 13.0917 299.946 12.3438ZM310.606 13.1107C311.85 11.8582 313.595 11.2232 315.79 11.2232C317.859 11.2232 319.5 11.8306 320.667 13.029C321.833 14.2268 322.424 15.8943 322.424 17.9844C322.424 20.1003 321.794 21.8173 320.551 23.0858C319.308 24.3555 317.599 24.9995 315.47 24.9995C313.427 24.9995 311.775 24.3884 310.562 23.1821C309.349 21.9763 308.733 20.321 308.733 18.2632C308.733 16.0967 309.363 14.3633 310.606 13.1107ZM278.517 11.5398L278.517 13.8159L278.55 13.8159C278.843 13.0773 279.226 12.4849 279.755 12.053C280.358 11.5615 281.063 11.3118 281.851 11.3118C282.373 11.3118 282.785 11.3735 283.077 11.4958L283.128 11.5173L283.128 14.6342L282.996 14.54C282.852 14.4368 282.605 14.3387 282.266 14.2485C281.923 14.1577 281.606 14.1117 281.324 14.1117C280.491 14.1117 279.81 14.4669 279.298 15.1678C278.779 15.8772 278.517 16.8163 278.517 17.9595L278.517 24.6826L275.384 24.6826L275.384 11.5398L278.517 11.5398ZM257.298 11.54L260.431 11.54L260.431 24.6826L257.298 24.6826L257.298 11.54ZM290.247 22.4407C289.097 22.4407 288.188 22.064 287.549 21.3221C286.905 20.5764 286.58 19.5135 286.58 18.1624C286.58 16.7688 286.906 15.678 287.55 14.9191C288.189 14.1653 289.088 13.7827 290.222 13.7827C291.321 13.7827 292.196 14.1481 292.823 14.8694C293.454 15.5944 293.773 16.6764 293.773 18.0863C293.773 19.5135 293.473 20.6098 292.88 21.3431C292.291 22.071 291.405 22.4407 290.247 22.4407ZM315.649 22.4407C314.498 22.4407 313.591 22.064 312.951 21.3221C312.308 20.5764 311.981 19.5132 311.981 18.1624C311.981 16.7688 312.308 15.678 312.951 14.9191C313.592 14.1653 314.49 13.7827 315.624 13.7827C316.724 13.7827 317.599 14.1481 318.226 14.8694C318.856 15.5944 319.176 16.6764 319.176 18.0863C319.176 19.5135 318.875 20.6098 318.282 21.3431C317.693 22.071 316.808 22.4407 315.649 22.4407ZM207.921 31L192.781 31L192.781 16L207.921 16L207.921 31ZM208.931 31L224.07 31L224.07 16L208.931 16L208.931 31Z" clip-rule="evenodd" fill="#36536B" fill-opacity="1.000000" fill-rule="evenodd"/>
	<path id="Combined Shape" d="M418.19 2L411.806 20.0009L411.806 20.0016L414.502 20.0016L417.624 11.3377L418.476 11.3377C419.042 11.3377 419.042 11.7542 418.948 12.2178L416.157 20.0016L418.948 20.0016C418.948 20.0016 421.36 13.423 421.786 12.0328C422.211 10.6426 421.36 9.94751 419.704 9.94751L418.096 9.94751L420.934 2L418.19 2ZM439.52 2L422.759 2L421.997 4.02118C428.644 4.33582 433.926 9.32367 433.926 15.4299C433.926 21.1057 429.361 25.8147 423.381 26.7038L422.664 28.8727L439.52 28.8727C440.464 28.8764 441.371 28.5007 442.04 27.8285C442.709 27.1564 443.086 26.2432 443.086 25.2905L443.086 5.57001C443.086 3.58081 441.488 2 439.52 2ZM417.32 26.4409C412.383 24.838 408.833 20.4277 408.833 15.4307C408.833 11.0378 411.916 6.60461 416.031 4.40057L416.887 2.00073L403.253 2.00073C401.286 2.00372 399.694 3.61224 399.694 5.59515L399.694 25.2639C399.694 27.2477 401.287 28.8727 403.253 28.8727L416.459 28.8727L417.32 26.4409ZM540.312 2.78625C539.873 2.33405 539.27 2.08362 538.643 2.09369C537.994 2.09369 537.441 2.32532 536.983 2.78625C536.543 3.21796 536.294 3.81097 536.294 4.42975C536.294 4.44086 536.294 4.45197 536.295 4.46307C536.295 5.1236 536.521 5.68506 536.978 6.14905C537.435 6.6153 537.989 6.84766 538.643 6.84766C539.295 6.84766 539.852 6.6145 540.312 6.14905C540.752 5.71448 541 5.1192 541 4.49835C541 4.48663 541 4.47485 541 4.46307C541 3.80713 540.77 3.24792 540.312 2.78625ZM484.835 11.1757C484.979 11.7052 485.668 12.787 486.384 12.787L486.384 12.7878L487.812 12.7878L491.244 2.15619L488.812 2.15619L486.573 9.42041L484.191 2.20416L481.904 2.20416L479.522 9.42041L477.281 2.15619L474.852 2.15619L477.758 11.1529C477.901 11.6816 478.521 12.7878 479.236 12.7878L480.713 12.7878L483.048 5.61957L484.835 11.1757ZM531.812 12.7833L531.812 4.37012L535.36 4.37012L535.36 2.15845L525.884 2.15845L525.884 4.37012L529.385 4.37012L529.385 12.7833L531.812 12.7833ZM520.594 12.7764L520.594 4.37469L524.139 4.37469L524.139 2.16534L514.671 2.16534L514.671 4.37469L518.168 4.37469L518.168 12.7764L520.594 12.7764ZM473.48 2.16687L465.395 2.16687C464.3 2.16687 463.73 2.79077 463.73 3.75153L463.73 11.3845C463.73 12.0084 464.3 12.7764 465.252 12.7764L473.48 12.7764L473.48 10.5685L466.155 10.5685L466.155 8.55267L472.244 8.55267L472.244 6.34485L466.155 6.34485L466.155 4.37695L473.48 4.37695L473.48 2.16687ZM512.894 2.17139L504.813 2.17139C503.72 2.17139 503.149 2.79462 503.149 3.75452L503.149 11.3799C503.149 12.0038 503.72 12.7711 504.671 12.7711L512.894 12.7711L512.894 10.5648L505.574 10.5648L505.574 8.55042L511.658 8.55042L511.658 6.34406L505.574 6.34406L505.574 4.37695L512.894 4.37695L512.894 2.17139ZM450.074 2.17371L450.074 12.7687L452.497 12.7687L452.497 8.54962L458.816 8.54962L458.816 12.7687L461.239 12.7687L461.239 2.17371L458.816 2.17371L458.816 6.34485L452.497 6.34485L452.497 2.17371L450.074 2.17371ZM493.003 2.17749L493.003 11.1841C493.003 11.9985 493.621 12.765 494.713 12.765L501.837 12.765L501.837 10.5609L495.426 10.5609L495.426 2.17749L493.003 2.17749ZM538.643 6.52081C539.183 6.52985 539.702 6.31177 540.076 5.91895C540.471 5.51746 540.667 5.03217 540.667 4.46228C540.667 3.89703 540.471 3.41473 540.077 3.01556C539.682 2.61481 539.203 2.4137 538.644 2.4137C538.084 2.4137 537.607 2.61481 537.212 3.01556C536.818 3.41473 536.622 3.89703 536.622 4.46228C536.622 4.47485 536.622 4.48743 536.622 4.49994C536.622 5.03253 536.833 5.5437 537.209 5.91895C537.583 6.31226 538.103 6.5304 538.643 6.52081ZM428.795 9.90179L424.381 9.90179L418.021 28L420.727 28L423.546 19.9987L426.042 19.9987C428.035 19.9987 428.368 19.2542 428.747 18.184L430.789 12.5074C431.501 10.5999 430.123 9.90179 428.795 9.90179ZM425.994 17.8117C426.042 17.5323 428.035 11.9959 428.035 11.9959C428.178 11.6237 428.226 11.2979 427.799 11.2979L426.611 11.2979L424.038 18.6026L425.235 18.6026C425.709 18.6026 425.947 18.0911 425.994 17.8117ZM468.494 18.3729L465.351 18.3729L460.443 29L463.016 29L463.873 27.0771L469.96 27.0771L470.827 29L473.305 29L468.494 18.3729ZM521.344 24.8647C521.916 24.3832 522.297 23.6625 522.297 21.7388C522.297 19.5751 520.82 18.3729 519.105 18.3729L512.104 18.3729L512.104 28.9993L514.485 28.9993L514.485 25.8734L518.58 25.8734C519.534 25.8734 520.011 26.6428 520.011 27.0756L520.011 28.9985L522.297 28.9985L522.297 26.7868C522.297 26.1621 522.105 25.2494 521.344 24.8647ZM487.112 18.3829L487.112 28.9901L489.539 28.9901L489.539 24.5737L490.775 24.5737L495.292 28.9901L497.1 28.9901L497.1 27.5982L492.867 23.3745L497.957 18.3829L494.723 18.3829L490.585 22.3666L489.539 22.3666L489.539 18.3829L487.112 18.3829ZM457.724 18.3889L450.074 18.3889L450.074 28.984L452.497 28.984L452.497 26.0112L457.723 26.0112C459.148 26.0112 460.764 25.1968 460.764 22.2241L460.764 22.2222C460.764 19.2038 459.006 18.3889 457.724 18.3889ZM535.419 21.6497C535.419 19.7808 534.469 18.3912 532.475 18.3912L524.688 18.3912L524.688 28.981L532.428 28.981C535.23 28.981 535.419 26.2497 535.419 24.7641L535.419 21.6497ZM505.484 18.3935L502.352 18.3935L498.126 27.4938L498.126 28.9786L500.025 28.9786L500.879 27.0626L506.946 27.0626L507.812 28.9786L510.281 28.9786L505.484 18.3935ZM474.368 20.887L474.368 26.4851C474.368 27.5853 475.032 28.9733 476.835 28.9733L482.622 28.9733C483.95 28.9733 485.04 28.0645 485.04 26.4851L485.04 25.5283L482.669 25.5283C482.669 26.0067 482.573 26.7723 481.672 26.7723L477.546 26.7723C477.261 26.7723 476.788 26.5811 476.788 25.8155L476.788 21.6055C476.788 21.6055 476.78 21.5542 476.78 21.4754C476.78 21.2137 476.864 20.6486 477.593 20.6486L481.768 20.6486C482.146 20.6486 482.572 21.3655 482.621 21.8439L485.039 21.8439L485.039 20.9358C485.039 20.0269 484.14 18.4468 482.621 18.3996L476.787 18.3996C475.648 18.3996 474.368 19.6917 474.368 20.887ZM466.921 20.3439L464.874 24.8647L468.922 24.8647L466.921 20.3439ZM503.918 20.3575L501.876 24.8601L505.95 24.8601L503.918 20.3575ZM514.484 23.6625L518.866 23.6625C519.771 23.6625 520.01 22.5563 520.01 22.0283C520.01 21.498 519.771 20.5853 518.58 20.5853L514.484 20.5853L514.484 23.6625ZM452.497 23.8065L457.153 23.8065C458.199 23.8065 458.199 22.704 458.199 22.2249C458.199 21.7457 458.199 20.5945 457.011 20.5945L452.497 20.5945L452.497 23.8065ZM532.997 25.0521L532.997 22.0329C532.999 22.0011 533 21.9691 533 21.937C533 21.2921 532.537 20.596 531.857 20.596L527.107 20.596L527.107 26.7769L531.668 26.7769C532.521 26.7769 532.997 25.9617 532.997 25.0521Z" clip-rule="evenodd" fill="#36536B" fill-opacity="1.000000" fill-rule="evenodd"/>
	<path id="Combined Shape" d="M233.259 87.0795L237.498 87.0795L237.498 92.9135C236.175 93.3299 234.505 93.5583 232.769 93.5583C225.732 93.5583 221.598 87.6547 221.598 81.889C221.598 76.2342 225.338 72.2676 230.557 72.2676C233.858 72.2676 235.78 73.3638 237.499 74.8906L237.499 76.794L240.723 73.6359C238.684 72.2844 235.731 71 231.512 71C222.249 71 218.015 77.493 218.015 82.8292C218.015 90.4245 223.661 95 230.757 95C234.197 95 237.252 94.4855 240.78 93.5234L240.78 87.496C240.78 87.1879 240.918 86.9764 241.125 86.7906L242.238 85.6997L234.677 85.6997L233.259 87.0795ZM299.801 94L293.374 94L294.552 92.8458C294.745 92.6494 294.835 92.4581 294.835 92.177L294.835 72.4027L292.705 72.4027L294.131 71L299.611 71L298.452 72.1398C298.322 72.2623 298.146 72.4549 298.146 72.8309L298.146 91.9208C298.146 92.3294 298.44 92.751 298.937 92.8109L300.779 93.0372L299.801 94ZM243.248 86.6061C243.248 82.6897 246.496 79 251.739 79L251.739 79.0013C256.339 79.0013 259.396 82.6061 259.396 86.3181C259.396 90.3031 256.268 94 251.167 94C245.864 94 243.248 89.9865 243.248 86.6061ZM261.416 86.6061C261.416 82.6897 264.664 79 269.907 79L269.907 79.0013C274.507 79.0013 277.564 82.6061 277.564 86.3181C277.564 90.3031 274.436 94 269.335 94C264.032 94 261.416 89.9865 261.416 86.6061ZM279.242 85.1281C279.242 81.8954 281.636 79 286.061 79L286.061 79.0002L292.618 79.0002L291.287 80.3755L289.517 80.3755C290.967 81.6501 291.604 83.0112 291.604 84.5933C291.604 86.8994 290.345 88.0548 289.453 88.8355C289.29 88.9855 288.855 89.2983 288.604 89.5723C288.461 89.7402 288.072 90.185 288.072 90.8571C288.072 91.3264 288.224 91.7256 289.004 92.3525C291.657 94.4077 292.706 95.5995 292.706 97.7736C292.706 100.858 289.869 104 284.393 104C279.767 104 277.565 101.662 277.565 99.2858C277.565 96.5727 279.999 94.0483 286.055 93.6669C285.415 92.9172 285.113 92.4301 285.113 91.5626C285.114 90.9745 285.357 90.3657 285.357 90.3657L284.467 90.3657C280.947 90.3657 279.242 87.5892 279.242 85.1281ZM308.27 79C304.638 79 300.779 81.5765 300.779 86.2021C300.779 90.0224 303.548 94 308.72 94C310.009 94 311.071 93.8456 312.065 93.4205C313.133 92.9631 314.16 92.2202 314.91 91.2866C313.495 91.9509 312.34 92.3872 310.807 92.3872C307.893 92.3872 305.083 90.4302 304.101 86.8329L314.395 82.9601C313.8 80.987 312.123 79 308.271 79L308.27 79ZM284.84 80.0289C285.643 80.0289 286.312 80.3223 287.021 80.9311C287.806 81.6627 289.061 83.6287 289.061 86.0614C289.061 88.6866 287.087 89.4053 286.019 89.4053C285.496 89.4053 284.87 89.2541 284.34 88.8792C283.161 88.0896 281.992 85.9877 281.992 83.4866C281.992 81.2297 283.292 80.0289 284.84 80.0289ZM310.954 82.7182C310.954 81.5503 309.546 80.0582 307.597 80.0582C306.309 80.0582 303.697 80.957 303.697 84.3187C303.697 85.1202 303.869 85.8618 303.869 85.8618L310.196 83.4798C310.7 83.2953 310.954 83.0959 310.954 82.7182ZM250.869 80.0757C254.565 80.0757 256.212 84.7138 256.212 88.0219C256.212 92.9418 252.38 93.039 251.921 93.039C250.168 93.039 248.942 92.0182 248.024 90.6794C247.217 89.4456 246.428 87.1531 246.428 84.9133C246.428 82.6821 247.186 81.5927 248.379 80.7912C249.355 80.1904 250.269 80.0757 250.868 80.0757L250.869 80.0757ZM269.037 80.0757C272.733 80.0757 274.38 84.7138 274.38 88.0219C274.38 92.9418 270.548 93.039 270.089 93.039C268.336 93.039 267.11 92.0182 266.192 90.6794C265.385 89.4456 264.596 87.1531 264.596 84.9133C264.596 82.6821 265.354 81.5927 266.547 80.7912C267.523 80.1904 268.437 80.0757 269.036 80.0757L269.037 80.0757ZM287.172 94.6921C287.172 94.6921 286.93 94.6635 286.592 94.6635C282.048 94.7293 280.393 96.5004 280.393 98.5583C280.393 101.043 282.809 102.564 285.97 102.564C288.851 102.564 290.629 101.01 290.629 99.0287C290.629 97.5873 289.82 96.7782 288.525 95.7196C287.969 95.2802 287.172 94.6921 287.172 94.6921Z" clip-rule="evenodd" fill="#36536B" fill-opacity="1.000000" fill-rule="evenodd"/>
	<path id="Shape" d="M65.8184 90.0599L57.0811 90.0599L59.0107 93.0298L67.8564 93.0298L69.6777 95.9998L73.5361 95.9998L63.1826 80.0078C62.7471 79.3762 62 79 61.1982 79C60.3691 79 59.6221 79.3898 59.1738 80.0347L48.8604 95.9998L52.7197 95.9998L61.1982 82.709L65.8184 90.0599ZM48.752 84.8591C48.752 88.0037 46.1699 90.5435 42.9902 90.5435L42.9912 90.5439L41.4961 90.5439L48.0723 96L43.3164 96L33.542 87.5741L42.7734 87.5873C44.2949 87.5873 45.5176 86.3644 45.5176 84.8596C45.5176 83.3545 44.2949 82.1313 42.7734 82.1313L31.9385 82.1313L31.9385 96L28.665 96L28.665 79.1609L42.9902 79.1609C46.1699 79.1609 48.752 81.7142 48.752 84.8591ZM120.414 93.0298L132.222 93.0298L130.293 95.9995L120.197 95.9995C115.495 95.9995 111.678 92.2368 111.678 87.5869C111.678 82.9371 115.495 79.1609 120.197 79.1609L131.964 79.1609L130.021 82.1313L120.414 82.1313C117.9 82.1313 115.768 83.8109 115.115 86.0955L131.04 86.0955L129.11 89.0654L115.115 89.0654C115.768 91.3635 117.9 93.0297 120.414 93.0298ZM97.165 93.0296L97.165 79.1611L93.8906 79.1611L93.8906 94.3871C93.8906 94.8036 94.0537 95.207 94.3662 95.516C94.6787 95.8251 95.0996 95.9998 95.5615 95.9998L110.495 95.9998L112.425 93.0298L97.165 93.0298L97.165 93.0296ZM8.51465 95.9998C3.81445 96 0 92.2371 0 87.5873C0 82.9374 3.81445 79.1614 8.51465 79.1614L18.4102 79.1614C23.1113 79.1614 26.9229 82.9374 26.9229 87.5873C26.9229 92.2371 23.1113 95.9998 18.4102 95.9998L8.51465 95.9998ZM80.3711 95.9998C75.6699 95.9998 71.8516 92.2371 71.8516 87.5873C71.8516 82.9374 75.6699 79.1614 80.3711 79.1614L92.125 79.1614L90.208 82.1313L80.5879 82.1313C77.5449 82.1313 75.0713 84.5771 75.0713 87.5873C75.0713 90.5974 77.5449 93.0298 80.5879 93.0298L92.3965 93.0298L90.4668 95.9998L80.3711 95.9998ZM23.7012 87.5871C23.7012 90.5974 21.2354 93.0298 18.1904 93.0298L8.7334 93.0298C5.68945 93.0298 3.22168 90.5974 3.22168 87.5873C3.22168 84.5771 5.68945 82.1313 8.7334 82.1313L18.1904 82.1313C21.2354 82.1313 23.7012 84.5771 23.7012 87.5871Z" clip-rule="evenodd" fill="#36536B" fill-opacity="1.000000" fill-rule="evenodd"/>
	<path id="Combined Shape" d="M417.398 75L417.398 78.5014L418.094 78.458C427.032 78.1542 432.871 85.7791 432.871 85.7791C432.871 85.7791 426.178 93.9104 419.209 93.9104C418.601 93.9104 418.007 93.8525 417.412 93.7512L417.412 95.9215C417.905 95.9794 418.412 96.0228 418.904 96.0228C425.396 96.0228 430.09 92.7095 434.639 88.803C435.392 89.4107 438.478 90.872 439.115 91.5086C434.798 95.1258 424.729 98.0339 419.021 98.0339C418.47 98.0339 417.948 98.005 417.427 97.9471L417.427 101L442.086 101L442.086 75L417.398 75ZM406.749 86.1987C406.749 86.1987 410.294 80.9681 417.398 80.4124L417.398 82.7551C412.617 83.276 409.733 86.4591 409.733 86.4591C409.733 86.4591 411.4 92.6951 417.398 93.7657L417.398 91.9138C414.022 90.7708 412.906 86.8208 412.906 86.8208C412.906 86.8208 414.877 84.4769 417.384 84.7808L417.398 84.7808L417.398 82.7551C417.833 82.7117 418.268 82.6828 418.702 82.6973C422.816 82.6973 425.265 85.8948 425.265 85.8948L421.918 88.7017C420.426 86.1987 419.919 85.0991 417.412 84.7952L417.412 91.9138C418.021 92.1163 418.658 92.2176 419.311 92.2176C424.192 92.2176 428.742 85.9093 428.742 85.9093C428.742 85.9093 424.526 80.1797 418.094 80.3823C417.866 80.3823 417.64 80.3962 417.412 80.4103L417.412 78.5014C409.531 79.138 402.722 85.7935 402.722 85.7935C402.722 85.7935 406.575 96.9343 417.398 97.9471L417.398 95.9215C409.459 94.9377 406.749 86.1987 406.749 86.1987ZM417.412 80.4103L417.412 80.4113C417.407 80.4116 417.402 80.412 417.398 80.4124L417.398 80.4113L417.412 80.4103ZM449.152 96.9856L449.152 80L457.867 80C462.094 80 466.423 80.9061 466.423 87.6083L466.423 96.9856L461.672 96.9856L461.672 89.2335C461.672 86.8604 461.365 85.5516 460.593 84.7462C459.995 84.1133 459.121 83.8113 457.867 83.8113L454.049 83.7969L454.049 96.9856L449.152 96.9856ZM476.29 93.4763L480.342 80.0287L485.297 80.0287L479.7 97L472.704 97L467.166 80.0287L472.413 80.0287L476.29 93.4763ZM487.337 80.0287L492.19 80.0287L492.19 97L487.337 97L487.337 80.0287ZM495.164 97L495.164 80.0287L501.97 80.0287C505.847 80.0287 508.441 80.489 510.22 82.8621C511.225 84.1853 511.793 86.3139 511.793 88.7014C511.793 91.3046 511.123 93.692 510.073 94.7708C508.602 96.3096 507.231 97 503.034 97L495.164 97ZM514.067 97L514.067 80.0287L518.92 80.0287L518.92 97L514.067 97ZM520.902 96.9856L527.68 80.0287L534.165 80.0287L541.001 96.9713L535.798 96.9713L534.777 93.9797L526.762 93.9797L525.683 96.9856L520.902 96.9856ZM530.828 83.121L533.771 91.0601L527.796 91.0601L530.828 83.121ZM499.974 83.7106L502.058 83.7106C505.089 83.7106 507.042 85.0482 507.042 88.5287C507.042 92.0093 505.089 93.3613 502.058 93.3613L499.974 93.3613L499.974 83.7106Z" clip-rule="evenodd" fill="#36536B" fill-opacity="1.000000" fill-rule="evenodd"/>
</svg>
