<svg width="134.000000" height="37.000000" viewBox="0 0 134 37" fill="none" xmlns="http://www.w3.org/2000/svg" xmlns:xlink="http://www.w3.org/1999/xlink">
	<desc>
			Created with Pixso.
	</desc>
	<defs/>
	<path id="payapi" d="M49.5439 32.9343L49.5439 25.0944L49.608 25.0944C50.1627 25.905 50.8719 26.5183 51.736 26.9343Q51.9631 27.0437 52.1976 27.1338L52.1976 27.1339Q53.3011 27.5583 54.568 27.5583C55.7841 27.5583 56.8453 27.3236 57.752 26.8544Q58.608 26.4111 59.2866 25.7778L59.2866 25.7778Q59.686 25.405 60.024 24.9663C60.632 24.177 61.0853 23.2703 61.384 22.2463Q61.3925 22.2173 61.4008 22.1884Q61.832 20.679 61.832 19.0463Q61.832 17.2863 61.384 15.6703C61.0853 14.593 60.6267 13.6489 60.0081 12.8383Q59.7296 12.4735 59.408 12.1519Q58.6576 11.4015 57.672 10.8864Q56.264 10.1503 54.312 10.1503Q52.9242 10.1503 51.7454 10.6466L51.7452 10.6467Q51.6194 10.6997 51.496 10.7583Q51.2788 10.8615 51.0746 10.9858Q50.0748 11.5944 49.384 12.7103L49.3199 12.7103L49.3199 10.5983L45 10.5983L45 32.9343L49.5439 32.9343ZM51.496 23.7183C52.0081 24.017 52.6267 24.1663 53.3521 24.1663C54.0986 24.1663 54.7227 24.017 55.224 23.7183C55.7253 23.4197 56.1306 23.0303 56.4399 22.5503C56.7494 22.0703 56.968 21.5103 57.0959 20.8704C57.224 20.2303 57.288 19.5796 57.288 18.9183Q57.288 18.2073 57.1812 17.5127Q57.1389 17.2383 57.08 16.9663C56.9413 16.3263 56.712 15.7556 56.392 15.2543C56.072 14.7529 55.6614 14.3477 55.16 14.0383C54.6587 13.729 54.0453 13.5743 53.3199 13.5743Q52.2 13.5743 51.448 14.0383C50.9467 14.3477 50.5414 14.7477 50.2321 15.2383Q49.7679 15.9744 49.576 16.9343C49.448 17.5743 49.384 18.2356 49.384 18.9183Q49.384 19.6293 49.4908 20.3239Q49.5331 20.5984 49.592 20.8704C49.7307 21.5103 49.9547 22.0703 50.264 22.5503C50.5734 23.0303 50.984 23.4197 51.496 23.7183ZM69.2339 27.5583Q69.9712 27.5583 70.6937 27.4551Q71.4764 27.3433 72.2418 27.1104C73.2231 26.8116 74.0765 26.2889 74.8019 25.5424C74.8232 25.8197 74.8605 26.0917 74.9138 26.3583C74.9672 26.625 75.0365 26.8864 75.1218 27.1423L79.7299 27.1423C79.5165 26.801 79.3672 26.2889 79.2819 25.6063C79.1965 24.9236 79.1538 24.209 79.1538 23.4623L79.1538 14.8544C79.1538 13.8517 78.9298 13.0463 78.4818 12.4384Q78.2485 12.1217 77.9689 11.8533Q77.4432 11.3485 76.7539 11.0143C76.0498 10.673 75.2712 10.4436 74.4178 10.3263Q73.1378 10.1503 71.8899 10.1503Q71.4818 10.1503 71.0752 10.1742Q70.1106 10.231 69.1538 10.4224C68.2472 10.6036 67.4312 10.9076 66.7058 11.3344C65.9805 11.761 65.3832 12.3263 64.9138 13.0303C64.4445 13.7343 64.1779 14.6196 64.1139 15.6863L68.6578 15.6863C68.7432 14.7903 69.0419 14.1503 69.5538 13.7664Q70.3219 13.1903 71.6659 13.1903Q72.2738 13.1903 72.8019 13.2703Q73.3298 13.3503 73.7299 13.5903C73.9965 13.7504 74.2098 13.9744 74.3699 14.2623C74.5298 14.5503 74.6099 14.9397 74.6099 15.4303C74.6113 15.4615 74.6119 15.4924 74.6119 15.5227C74.6119 15.9468 74.4727 16.2733 74.1938 16.5023C73.8951 16.7477 73.4899 16.9343 72.9779 17.0623C72.4658 17.1903 71.8792 17.2863 71.2179 17.3503C70.5565 17.4143 69.8845 17.4996 69.2019 17.6063C68.5192 17.713 67.8418 17.8569 67.1698 18.0383Q66.1619 18.3103 65.3778 18.8544C64.8552 19.2169 64.4285 19.7023 64.0979 20.3103Q63.6018 21.2223 63.6018 22.6304C63.6018 23.4836 63.7458 24.2196 64.0338 24.8383C64.3219 25.457 64.7218 25.969 65.2339 26.3743C65.7458 26.7797 66.3431 27.0784 67.0259 27.2703C67.7085 27.4623 68.4445 27.5583 69.2339 27.5583ZM69.8739 24.4543C70.2152 24.5183 70.5671 24.5503 70.9298 24.5503Q72.2738 24.5503 73.0099 24.1023C73.5005 23.8036 73.8632 23.4463 74.0979 23.0303C74.3325 22.6143 74.4766 22.193 74.5298 21.7664Q74.6099 21.1263 74.6099 20.7423L74.6099 19.0463C74.4178 19.2169 74.1779 19.3503 73.8899 19.4463C73.6018 19.5424 73.2925 19.6223 72.9618 19.6863C72.6312 19.7504 72.2845 19.8036 71.9219 19.8463C71.5592 19.889 71.1965 19.9423 70.8339 20.0063C70.4926 20.0703 70.1565 20.1556 69.8258 20.2623C69.4951 20.369 69.2072 20.5129 68.9618 20.6943C68.7166 20.8756 68.5192 21.105 68.3699 21.3823C68.2205 21.6597 68.1459 22.0116 68.1459 22.4384Q68.1459 23.0463 68.3699 23.4623C68.5192 23.7396 68.7218 23.9583 68.9779 24.1183C69.2339 24.2783 69.5325 24.3903 69.8739 24.4543ZM84.8917 32.9343C86.449 32.9343 87.665 32.6464 88.5397 32.0703C89.4143 31.4943 90.097 30.5343 90.5876 29.1903L97.4996 10.5983L92.7957 10.5983L89.1797 21.9263L89.1157 21.9263L85.3717 10.5983L80.5397 10.5983L86.3317 26.1183C86.4597 26.4384 86.5237 26.7797 86.5237 27.1423C86.5237 27.6329 86.3796 28.0809 86.0917 28.4863C85.8037 28.8916 85.3611 29.1263 84.7637 29.1903C84.3157 29.2117 83.8677 29.2009 83.4197 29.1583C82.9717 29.1156 82.5343 29.073 82.1077 29.0303L82.1077 32.7743C82.577 32.817 83.041 32.8544 83.4996 32.8864C83.9584 32.9183 84.4224 32.9343 84.8917 32.9343ZM103.59 27.5264C104.379 27.5264 105.104 27.4303 105.766 27.2383C106.427 27.0463 107.019 26.7797 107.542 26.4384C108.064 26.0969 108.507 25.7076 108.87 25.2703C109.232 24.833 109.51 24.369 109.702 23.8783L109.766 23.8783L109.766 24.7423C109.766 25.0836 109.792 25.3983 109.846 25.6863C109.899 25.9744 110 26.225 110.15 26.4384Q110.374 26.7583 110.806 26.9503C111.094 27.0784 111.483 27.1423 111.974 27.1423C112.315 27.1423 112.646 27.0996 112.966 27.0143L112.966 25.9904Q112.39 26.0863 112.07 26.0863Q111.654 26.0863 111.43 25.9103Q111.36 25.8558 111.303 25.7905Q111.176 25.6451 111.109 25.4463C111.046 25.2543 111.008 25.041 110.998 24.8063C110.987 24.5717 110.982 24.337 110.982 24.1023L110.982 14.5343C110.982 13.2756 110.528 12.257 109.622 11.4783Q108.261 10.3103 105.286 10.3103Q102.31 10.3103 100.693 11.6703C99.6162 12.577 99.0349 13.937 98.9496 15.7504L100.166 15.7504C100.251 14.2783 100.747 13.1797 101.654 12.4543Q101.675 12.4369 101.697 12.4198Q103.049 11.3663 105.222 11.3663C106.054 11.3663 106.758 11.4517 107.333 11.6223C107.91 11.793 108.379 12.0276 108.742 12.3263C109.104 12.625 109.371 12.9663 109.542 13.3503Q109.577 13.4292 109.607 13.51Q109.797 14.0184 109.797 14.5983C109.797 15.1743 109.766 15.6543 109.702 16.0383C109.638 16.4224 109.478 16.7369 109.222 16.9823C108.966 17.2277 108.587 17.4197 108.086 17.5583C107.584 17.697 106.896 17.7983 106.021 17.8623L104.134 18.0223Q103.141 18.1183 102.07 18.3423C101.355 18.4917 100.704 18.7423 100.118 19.0944C99.5309 19.4463 99.0455 19.9263 98.6615 20.5343C98.2776 21.1423 98.0856 21.9263 98.0856 22.8864C98.0856 24.465 98.5656 25.6329 99.5255 26.3903C100.486 27.1477 101.84 27.5264 103.59 27.5264ZM100.453 25.5903C101.222 26.177 102.278 26.4703 103.622 26.4703Q105.702 26.4703 106.917 25.7183C107.728 25.2169 108.347 24.641 108.774 23.9904C109.2 23.3396 109.472 22.7103 109.59 22.1023C109.707 21.4943 109.766 21.0836 109.766 20.8704L109.766 17.7983C109.467 18.161 109.014 18.4062 108.406 18.5343C107.797 18.6624 107.12 18.7583 106.374 18.8223L104.326 19.0143C103.728 19.0784 103.131 19.1689 102.534 19.2863Q101.638 19.4623 100.917 19.8783C100.438 20.1556 100.048 20.5343 99.7495 21.0143C99.4509 21.4943 99.3015 22.1183 99.3015 22.8864C99.3015 24.1023 99.6855 25.0037 100.453 25.5903ZM116.111 33.0303L116.111 23.7183L116.175 23.7183C116.666 25.0623 117.445 26.033 118.511 26.6304C119.578 27.2277 120.794 27.5264 122.159 27.5264C123.418 27.5264 124.511 27.313 125.439 26.8864C126.367 26.4596 127.135 25.8677 127.743 25.1104C128.351 24.353 128.805 23.4517 129.103 22.4062C129.402 21.361 129.551 20.209 129.551 18.9503C129.551 17.7983 129.402 16.6996 129.103 15.6543C128.805 14.609 128.351 13.6917 127.743 12.9023C127.135 12.113 126.367 11.4836 125.439 11.0143C124.511 10.5449 123.418 10.3103 122.159 10.3103C121.263 10.3103 120.469 10.449 119.775 10.7263C119.082 11.0037 118.49 11.3503 117.999 11.7664Q117.263 12.3903 116.815 13.1263Q116.367 13.8623 116.175 14.4703L116.111 14.4703L116.111 10.6943L114.895 10.6943L114.895 33.0303L116.111 33.0303ZM119.263 25.8463Q120.431 26.4703 122.159 26.4703C123.226 26.4703 124.149 26.2677 124.927 25.8623C125.706 25.457 126.346 24.913 126.847 24.2303C127.349 23.5476 127.722 22.7529 127.967 21.8463C128.213 20.9397 128.335 19.9744 128.335 18.9503C128.335 18.0116 128.218 17.089 127.983 16.1824C127.749 15.2756 127.386 14.465 126.895 13.7504C126.405 13.0356 125.77 12.4596 124.991 12.0223Q123.823 11.3663 122.159 11.3663C121.071 11.3663 120.143 11.5796 119.375 12.0063C118.607 12.433 117.983 12.9983 117.503 13.7023C117.023 14.4062 116.677 15.2117 116.463 16.1183Q116.143 17.4783 116.143 18.9503Q116.143 20.4224 116.431 21.7823Q116.719 23.1423 117.407 24.1824Q117.582 24.4463 117.787 24.6833Q118.392 25.3806 119.263 25.8463ZM133.657 7.59033L133.657 4.29431L132.441 4.29431L132.441 7.59033L133.657 7.59033ZM133.657 27.1423L133.657 10.6943L132.441 10.6943L132.441 27.1423L133.657 27.1423Z" clip-rule="evenodd" fill="#36536B" fill-opacity="1.000000" fill-rule="evenodd"/>
	<circle id="Oval" r="3.000000" transform="matrix(0.707107 0.707107 -0.707107 0.707107 18.1421 4)" fill="#36536B" fill-opacity="1.000000"/>
	<circle id="Oval" r="3.000000" transform="matrix(0.707107 0.707107 -0.707107 0.707107 18.1421 4)" stroke="#979797" stroke-opacity="0" stroke-width="0.000000"/>
	<circle id="Oval Copy 6" r="3.000000" transform="matrix(0.707107 0.707107 -0.707107 0.707107 25.2131 11.071)" fill="#36536B" fill-opacity="1.000000"/>
	<circle id="Oval Copy 6" r="3.000000" transform="matrix(0.707107 0.707107 -0.707107 0.707107 25.2131 11.071)" stroke="#979797" stroke-opacity="0" stroke-width="0.000000"/>
	<circle id="Oval Copy 7" r="3.000000" transform="matrix(0.707107 0.707107 -0.707107 0.707107 32.2843 18.1422)" fill="#36536B" fill-opacity="1.000000"/>
	<circle id="Oval Copy 7" r="3.000000" transform="matrix(0.707107 0.707107 -0.707107 0.707107 32.2843 18.1422)" stroke="#979797" stroke-opacity="0" stroke-width="0.000000"/>
	<circle id="Oval Copy 10" r="3.000000" transform="matrix(0.707107 0.707107 -0.707107 0.707107 11.071 11.071)" fill="#36536B" fill-opacity="1.000000"/>
	<circle id="Oval Copy 10" r="3.000000" transform="matrix(0.707107 0.707107 -0.707107 0.707107 11.071 11.071)" stroke="#979797" stroke-opacity="0" stroke-width="0.000000"/>
	<g opacity="0.500000">
		<circle id="Oval Copy 9" r="3.000000" transform="matrix(0.707107 0.707107 -0.707107 0.707107 18.1421 18.1422)" fill="#36536B" fill-opacity="1.000000"/>
		<circle id="Oval Copy 9" r="3.000000" transform="matrix(0.707107 0.707107 -0.707107 0.707107 18.1421 18.1422)" stroke="#979797" stroke-opacity="0" stroke-width="0.000000"/>
	</g>
	<g opacity="0.500000">
		<circle id="Oval Copy 8" r="3.000000" transform="matrix(0.707107 0.707107 -0.707107 0.707107 25.2131 25.2133)" fill="#36536B" fill-opacity="1.000000"/>
		<circle id="Oval Copy 8" r="3.000000" transform="matrix(0.707107 0.707107 -0.707107 0.707107 25.2131 25.2133)" stroke="#979797" stroke-opacity="0" stroke-width="0.000000"/>
	</g>
	<circle id="Oval Copy 13" r="3.000000" transform="matrix(0.707107 0.707107 -0.707107 0.707107 4 18.1422)" fill="#36536B" fill-opacity="1.000000"/>
	<circle id="Oval Copy 13" r="3.000000" transform="matrix(0.707107 0.707107 -0.707107 0.707107 4 18.1422)" stroke="#979797" stroke-opacity="0" stroke-width="0.000000"/>
	<g opacity="0.500000">
		<circle id="Oval Copy 12" r="3.000000" transform="matrix(0.707107 0.707107 -0.707107 0.707107 11.071 25.2133)" fill="#36536B" fill-opacity="1.000000"/>
		<circle id="Oval Copy 12" r="3.000000" transform="matrix(0.707107 0.707107 -0.707107 0.707107 11.071 25.2133)" stroke="#979797" stroke-opacity="0" stroke-width="0.000000"/>
	</g>
	<g opacity="0.250000">
		<circle id="Oval Copy 11" r="3.000000" transform="matrix(0.707107 0.707107 -0.707107 0.707107 18.1421 32.2843)" fill="#36536B" fill-opacity="1.000000"/>
		<circle id="Oval Copy 11" r="3.000000" transform="matrix(0.707107 0.707107 -0.707107 0.707107 18.1421 32.2843)" stroke="#979797" stroke-opacity="0" stroke-width="0.000000"/>
	</g>
</svg>
